<svg xmlns="http://www.w3.org/2000/svg" width="166.579" height="166.581" viewBox="0 0 166.579 166.581">
  <path id="Internet-Icon-98iujk" d="M1421.784,22.02a83.29,83.29,0,1,0,83.29,83.291,83.384,83.384,0,0,0-83.29-83.291m75.568,79.477h-16.1c-.738-22.921-8.144-43.439-19.55-57.894.573-.462,1.1-.947,1.632-1.431a75.636,75.636,0,0,1,34.019,59.325M1444.3,161.38c4.609-14.682,7.15-33.57,7.454-52.253h21.865c-.788,22.89-8.6,43.094-20.333,56.206a58.356,58.356,0,0,0-8.986-3.953m-54.314,3.638c-11.562-13.122-19.263-33.188-20.037-55.891h21.86c.3,18.566,2.814,37.342,7.373,51.99a58.379,58.379,0,0,0-9.2,3.9m8.468-113.055c-4.095,14.266-6.353,31.987-6.645,49.534h-21.86c.745-21.783,7.852-41.143,18.648-54.266a55.233,55.233,0,0,0,9.857,4.732m45.636,49.534h-44.617c.306-18.6,2.787-34.955,6.341-47.367a72.677,72.677,0,0,0,16.754,1.987,72.61,72.61,0,0,0,15.28-1.678c3.505,12.378,5.937,28.628,6.242,47.058m-44.617,7.63h44.617c-.324,20.04-3.184,37.493-7.2,50.2a73.22,73.22,0,0,0-15.585-1.718,72.319,72.319,0,0,0-14.689,1.551c-3.987-12.7-6.815-30.076-7.147-50.028m52.281-7.63c-.285-17.36-2.5-34.891-6.508-49.067a58.022,58.022,0,0,0,10.2-4.581c10.521,13.112,17.435,32.208,18.17,53.648Zm5.619-62.931-.006.014c-.005-.014-.014-.018-.029-.027a.289.289,0,0,0,.035.013m-6.449,4.207a51.739,51.739,0,0,1-7.643,3.346,67.583,67.583,0,0,0-5.963-13,47.6,47.6,0,0,1,13.606,9.654m-29.143-13.117c4.844,0,9.936,6.875,14.035,18.448a66.669,66.669,0,0,1-13.248,1.364,66.211,66.211,0,0,1-14.7-1.707c4.074-11.362,9.115-18.105,13.911-18.105m-21.306,15.962a50.5,50.5,0,0,1-7.239-3.407,47.171,47.171,0,0,1,13.014-9.092,66.187,66.187,0,0,0-5.775,12.5m-19.337-4.055c.458.432.854.884,1.329,1.293-11.744,14.492-19.388,35.323-20.147,58.641h-16.094a75.66,75.66,0,0,1,34.912-59.934m-34.912,67.564h16.094c.784,24.012,8.86,45.412,21.2,59.933-.37.275-.731.538-1.083.819a75.654,75.654,0,0,1-36.209-60.752m48.627,60.8a55.278,55.278,0,0,1,6.491-2.56,62.732,62.732,0,0,0,4.906,10.141,46.3,46.3,0,0,1-11.4-7.581m26.928,11.048c-4.422,0-9.062-5.712-12.96-15.524a66.65,66.65,0,0,1,12.488-1.2,65.442,65.442,0,0,1,13.351,1.4c-3.881,9.669-8.478,15.317-12.879,15.317m20.321-13.3a57.5,57.5,0,0,1,6.281,2.558,46.4,46.4,0,0,1-11.065,7.273,62.428,62.428,0,0,0,4.784-9.831m18.478,2.525c-.3-.24-.617-.45-.922-.685,12.559-14.542,20.8-36.128,21.59-60.39h16.1a75.726,75.726,0,0,1-36.769,61.075" transform="translate(-1338.495 -22.02)" fill="#ea0707"/>
</svg>
